<svg width="256" height="256" viewBox="0 0 256 256" fill="none" xmlns="http://www.w3.org/2000/svg">
  <rect width="256" height="256" fill="#E76F00"/>
  <path d="M84.266 182.288C84.266 190.92 83.592 197.688 81.512 202.952C79.464 208.216 75.672 212.04 70.392 214.424C65.4 216.584 58.856 217.848 51.016 218.456C47.272 218.84 44.52 219.016 42.76 219.016C39.784 219.016 36.616 218.728 33.256 218.12L32.728 222.136C36.376 223.016 39.816 223.528 43.016 223.528C48.216 223.528 53.192 222.392 57.944 220.12C62.92 217.656 66.904 214.28 69.896 209.992C72.888 205.48 74.456 200.2 74.6 194.152L75.672 201.688C80.92 206.648 86.168 209.592 91.416 210.52C96.696 211.416 102.2 210.904 107.672 209.272C112.392 207.88 116.472 205.528 119.944 202.216C123.416 198.872 125.88 194.856 127.304 190.168C128.76 185.48 129.336 180.504 129 175.24C128.664 170.296 127.304 165.64 124.952 161.304C122.6 156.968 119.384 153.24 115.304 150.12C110.776 146.776 105.528 144.328 99.56 142.808C93.624 141.288 87.256 140.552 80.456 140.552C73.88 140.552 67.8 141.384 62.216 143.08C56.664 144.776 52.072 147.24 48.44 150.472C44.808 153.704 42.248 157.608 40.76 162.184C39.272 166.728 38.552 171.752 38.632 177.256C38.664 179.976 39.304 182.376 40.584 184.456C41.864 186.504 43.752 188.104 46.216 189.256C47.624 189.848 50.408 190.28 54.568 190.584C58.728 190.888 63.416 191.08 68.6 191.08H84.92C84.92 185.656 84.728 181.048 84.312 177.256C83.896 173.464 82.744 170.2 80.856 167.464C78.968 164.696 76.136 162.52 72.36 160.936C68.584 159.352 63.576 158.568 57.336 158.568C52.888 158.568 48.696 159.16 44.76 160.376C40.856 161.592 37.592 163.336 34.968 165.608C32.344 167.88 30.392 170.584 29.112 173.72C27.832 176.856 27.224 180.28 27.288 184.024C27.384 188.712 28.76 192.728 31.416 196.072C34.072 199.416 38.12 201.784 43.56 203.176C36.696 205.88 31.704 209.592 28.584 214.312C25.464 219 23.944 224.696 23.944 231.368C23.944 237.592 25.72 243.112 29.272 247.928C32.824 252.712 37.864 256.072 44.392 258.04C50.952 259.976 58.76 260.952 67.816 260.952C75.336 260.952 82.184 260.2 88.36 258.696C94.536 257.192 99.688 254.92 103.816 251.88C107.944 248.808 110.952 244.952 112.84 240.312C114.728 235.64 115.672 230.168 115.672 223.896V214.728C115.672 209.528 114.184 205.048 111.176 201.256C108.2 197.464 104.248 194.696 99.336 192.984C94.456 191.24 88.824 190.328 82.44 190.328L84.266 182.288ZM57.592 169.032C63.224 169.032 68.28 169.656 72.76 170.936C77.24 172.184 80.792 174.2 83.416 176.984C86.04 179.768 87.416 183.336 87.512 187.72H79.112C70.424 187.72 64.136 186.856 60.248 185.128C56.392 183.4 54.408 180.664 54.296 176.92C54.184 174.968 54.792 173.176 56.12 171.544C57.448 169.912 59.368 168.904 61.88 168.52C64.392 168.104 67.752 167.944 71.96 168.008L80.072 168.104C84.472 168.136 88.472 168.104 92.072 168.008C95.672 167.912 98.712 167.56 101.192 166.984C103.672 166.376 105.48 165.384 106.616 164.008C107.784 162.6 108.36 160.712 108.36 158.344C108.36 154.616 106.856 151.656 103.848 149.464C100.84 147.24 96.456 146.168 90.696 146.168C85.128 146.168 80.472 147.048 76.728 148.84C72.984 150.6 70.328 153.048 68.792 156.184C67.256 159.288 66.6 162.824 66.824 166.792C66.856 168.776 67.352 170.568 68.344 172.168C69.336 173.768 71.032 174.984 73.432 175.816C74.872 176.312 77.336 176.664 80.856 176.92C84.376 177.144 88.776 177.256 94.056 177.256L97.176 177.224C101.448 177.224 105.08 177.576 108.072 178.312C111.064 179.048 113.224 180.28 114.552 182.008C115.912 183.736 116.568 186.088 116.52 189.064C116.472 192.408 115.176 195.304 112.6 197.72C110.024 200.136 106.2 201.912 101.128 203.08C96.088 204.248 89.928 204.84 82.648 204.84H66.792C59.288 204.84 52.744 203.944 47.16 202.12C41.576 200.296 37.304 197.4 34.344 193.432C31.384 189.432 29.944 184.28 30.056 177.976C30.056 172.2 31.88 167.112 35.528 162.68C39.176 158.248 44.328 154.776 51.016 152.264C57.704 149.752 65.848 148.488 75.48 148.488C84.12 148.488 91.528 149.56 97.704 151.704C103.88 153.848 108.632 156.856 111.96 160.728C115.288 164.6 117.016 169.192 116.168 174.504L115.96 175.816C114.824 179.512 112.584 182.376 109.24 184.408C105.896 186.408 101.544 187.4 96.216 187.4L81.976 187.24C75.128 187.24 69.752 187.848 65.848 189.064C61.944 190.248 59.432 192.312 58.28 195.256C57.72 196.712 57.528 198.376 57.704 200.248C57.912 202.12 58.696 203.88 60.056 205.496C61.416 207.112 63.464 208.408 66.2 209.384C68.968 210.328 72.568 210.808 77 210.808C83.288 210.808 88.408 209.704 92.36 207.496C96.344 205.256 99.16 202.184 100.84 198.264L101.912 200.504C100.52 203.912 98.136 206.552 94.792 208.456C91.48 210.328 87.352 211.256 82.408 211.256C76.216 211.256 71.176 210.104 67.288 207.8C63.4 205.464 60.776 202.248 59.448 198.12C58.568 195.512 58.12 192.248 58.12 188.328C58.12 184.408 58.888 180.728 60.456 177.256L57.592 169.032Z" fill="white"/>
</svg>
