<svg width="256" height="256" viewBox="0 0 256 256" fill="none" xmlns="http://www.w3.org/2000/svg">
  <rect width="256" height="256" fill="#339933"/>
  <path d="M119.68 220.828V187.25H97.943V220.828L75.828 205.515V182.573L120.058 164.75V126.49H97.943V158.78L60.8 175.39L40.078 161.5V200.22L119.68 236.328V220.828Z" fill="white"/>
  <path d="M168.802 220.828V236.328L248.404 200.22V161.5L227.682 175.39L190.539 158.78V126.49H168.424V164.75L212.654 182.573V205.515L190.539 220.828V187.25H168.802V220.828Z" fill="white"/>
  <path d="M196.8 56.644L212.654 64.328V110.028L196.8 101.656V56.644Z" fill="white"/>
  <path d="M143.36 42.5L159.216 50.184V95.884L143.36 87.512V42.5Z" fill="white"/>
  <path d="M212.654 64.328L196.8 56.644V101.656L212.654 110.028V64.328Z" fill="#5F5F5F"/>
  <path d="M159.216 50.184L143.36 42.5V87.512L159.216 95.884V50.184Z" fill="#5F5F5F"/>
</svg>
